# xmcd
#
# Track frame offsets:
#	150
#	12772
#	20598
#	31177
#	42315
#	60126
#	73064
#	84962
#	100478
#	123118
#	137300
#	147059
#	159092
#	179460
#	193905
#	207215
#	227212
#	239268
#	250127
#	259140
#
# Disc length: 3649 seconds
#
# Revision: 1
# Processed by: cddbd v1.5.2PL0 Copyright (c) Steve Scherf et al.
# Submitted via: audiograbber 1.83.01
#
DISCID=020e3f14
DTITLE=ruzni - Dechovka krasna dechovka ma - CD 8
DYEAR=2004
DGENRE=Dechovka
TTITLE0=Kotaranka - Rozluceni
TTITLE1=Kotaranka - Beskyde, Beskyde
TTITLE2=Kotaranka - My sme Valasi
TTITLE3=Kotaranka - Javornik Javornik
TTITLE4=Samsonka - Netrapte se rodicove
TTITLE5=Samsonka - Jeste je, jeste je
TTITLE6=Samsonka - Svit mesicku do svetnice
TTITLE7=Samsonka - Hradecka brana
TTITLE8=Lanzhotcanka - Horela lipka horela
TTITLE9=Lanzhotcanka - Na brehu Dyje
TTITLE10=Lanzhotcanka - Ty falesna frajarko
TTITLE11=Lanzhotcanka - Nedaleko od Trencina
TTITLE12=Budvar Quintet - Namluvil jsem si
TTITLE13=Budvar Quintet - Vrbensky potucek
TTITLE14=Budvar Quintet - Okolo Zlaty stoky
TTITLE15=Budvar Quintet - Na stary Mohelne
TTITLE16=Mala kapela - Chaloupky pod horama
TTITLE17=Mala kapela - V zelenem haji
TTITLE18=Mala kapela - Tam na severu dalekem
TTITLE19=Mala kapela - Rimovsky mustek
EXTD=
EXTT0=KOTARANKA
EXTT1=KOTARANKA
EXTT2=KOTARANKA
EXTT3=KOTARANKA
EXTT4=SAMSONKA
EXTT5=SAMSONKA
EXTT6=SAMSONKA
EXTT7=SAMSONKA
EXTT8=LANZHOTCANKA
EXTT9=LANZHOTCANKA
EXTT10=LANZHOTCANKA
EXTT11=LANZHOTCANKA
EXTT12=BUDVAR QUINTETT
EXTT13=BUDVAR QUINTETT
EXTT14=BUDVAR QUINTETT
EXTT15=BUDVAR QUINTETT
EXTT16=MALA KAPELA
EXTT17=MALA KAPELA
EXTT18=MALA KAPELA
EXTT19=MALA KAPELA
PLAYORDER=
